<svg width="2839" height="1999" viewBox="0 0 2839 1999" fill="none" xmlns="http://www.w3.org/2000/svg">
<mask id="path-1-inside-1" fill="white">
<path d="M2800.95 712.974L0.4375 1466.01L133.56 1109.04L2523.58 466.377L2800.95 712.974Z"/>
</mask>
<path d="M0.4375 1466.01L-356.547 1332.88L-615.04 2026.04L99.3714 1833.94L0.4375 1466.01ZM2800.95 712.974L2899.88 1080.9L3581.92 897.51L3054.1 428.237L2800.95 712.974ZM2523.58 466.377L2776.73 181.64L2623.13 45.0755L2424.65 98.4461L2523.58 466.377ZM133.56 1109.04L34.6266 741.105L-154.862 792.057L-223.424 975.909L133.56 1109.04ZM99.3714 1833.94L2899.88 1080.9L2702.01 345.043L-98.4964 1098.08L99.3714 1833.94ZM3054.1 428.237L2776.73 181.64L2270.43 751.114L2547.79 997.711L3054.1 428.237ZM2424.65 98.4461L34.6266 741.105L232.494 1476.97L2622.52 834.308L2424.65 98.4461ZM-223.424 975.909L-356.547 1332.88L357.422 1599.14L490.545 1242.16L-223.424 975.909Z" fill="white" mask="url(#path-1-inside-1)"/>
</svg>
