<svg width="2833" height="2540" viewBox="0 0 2833 2540" fill="none" xmlns="http://www.w3.org/2000/svg">
<mask id="path-1-inside-1" fill="white">
<path d="M2151.16 2396.9L2072.78 2535.97L684.454 138.116L1070.57 161.03L2151.16 2396.9Z"/>
</mask>
<path d="M2072.78 2535.97L1743.06 2726.88L2077.24 3304.05L2404.7 2723.04L2072.78 2535.97ZM2151.16 2396.9L2483.07 2583.97L2580.87 2410.45L2494.2 2231.11L2151.16 2396.9ZM1070.57 161.03L1413.6 -4.7601L1316.32 -206.057L1093.14 -219.301L1070.57 161.03ZM684.454 138.116L707.024 -242.215L-0.30992 -284.191L354.732 329.021L684.454 138.116ZM2404.7 2723.04L2483.07 2583.97L1819.25 2209.84L1740.87 2348.9L2404.7 2723.04ZM2494.2 2231.11L1413.6 -4.7601L727.528 326.819L1808.12 2562.69L2494.2 2231.11ZM1093.14 -219.301L707.024 -242.215L661.884 518.447L1047.99 541.361L1093.14 -219.301ZM354.732 329.021L1743.06 2726.88L2402.5 2345.07L1014.18 -52.7885L354.732 329.021Z" fill="#687163" mask="url(#path-1-inside-1)"/>
</svg>
